<mxfile host="app.diagrams.net" modified="2024-06-21T17:57:46.197Z" agent="Mozilla/5.0 (Windows NT 10.0; Win64; x64) AppleWebKit/537.36 (KHTML, like Gecko) Chrome/123.0.0.0 Safari/537.36 OPR/109.0.0.0" version="24.6.1" etag="KAy1_81ik0r2JXM2NteR" type="github">
  <diagram name="Page-1" id="WeAYu-ve6qJdO0fvZuEQ">
    <mxGraphModel>
      <root>
        <mxCell id="0" />
        <mxCell id="1" parent="0" />
      </root>
    </mxGraphModel>
  </diagram>
</mxfile>
